<svg xmlns="http://www.w3.org/2000/svg" width="145" height="60" viewBox="0 0 145 60" fill="none">
<path d="M1.84377e-06 48.3092L0 0H4.83333V21.7391H19.3333V26.57H4.83333V48.3092H1.84377e-06Z" fill="black"/>
<path d="M24.1667 48.3092V0H29V48.3092H24.1667Z" fill="black"/>
<path d="M48.3333 48.3092H72.5V43.4783H53.1667V26.57H72.5V21.7391H53.1667V4.83092H72.5V0H48.3333V21.7391H33.8333V26.57H48.3333V48.3092Z" fill="black"/>
<path fill-rule="evenodd" clip-rule="evenodd" d="M106.333 26.57H95.4583C94.7826 26.57 94.1185 26.5196 93.4694 26.4223L83.3934 49.0821L78.9767 47.12L88.886 24.835C84.8729 22.5486 82.1667 18.2327 82.1667 13.285C82.1667 5.94792 88.1175 0 95.4583 0H111.167V48.3092H106.333V26.57ZM106.333 4.83092H95.4583C90.7869 4.83092 87 8.61594 87 13.285C87 17.9541 90.7869 21.7391 95.4583 21.7391H106.333V4.83092Z" fill="black"/>
<path d="M116 0V9.66184H120.833V4.83092H140.167V43.4783H120.833V38.6473H116V48.3092H145V0H116Z" fill="black"/>
<path d="M125.667 26.57V28.9855H123.25V24.1546H128.083V26.57H125.667Z" fill="black"/>
<path d="M137.75 28.9855H135.333V26.57H132.917V24.1546H137.75V28.9855Z" fill="black"/>
<path d="M5.04376 60C4.00943 60 3.28443 59.5942 2.72376 58.8792L3.21677 58.3961C3.6711 59.0338 4.2511 59.3333 5.07276 59.3333C5.92343 59.3333 6.50343 58.9275 6.50343 58.2415C6.50343 56.3768 3.16843 57.2657 3.16843 54.8889C3.16843 53.8164 4.00943 53.1594 5.17909 53.1594C6.03943 53.1594 6.72576 53.5169 7.18009 54.087L6.69676 54.57C6.28109 54.0773 5.80743 53.8164 5.15976 53.8164C4.38643 53.8164 3.88376 54.2029 3.88376 54.8406C3.88376 56.57 7.21876 55.7295 7.21876 58.1836C7.21876 59.3333 6.37776 60 5.04376 60Z" fill="black"/>
<path d="M24.3069 60C22.4316 60 20.9719 58.4831 20.9719 56.5701C20.9719 54.657 22.4122 53.1594 24.2876 53.1594C26.1629 53.1594 27.6129 54.657 27.6129 56.5797C27.6129 58.4928 26.1726 60 24.3069 60ZM24.2876 59.314C25.7956 59.314 26.8782 58.1546 26.8782 56.5701C26.8782 55.0048 25.7859 53.8358 24.2876 53.8358C22.7892 53.8358 21.7066 54.9952 21.7066 56.5701C21.7066 58.1546 22.7989 59.314 24.2876 59.314Z" fill="black"/>
<path d="M41.745 59.9034V53.256H45.9404V53.9034H42.4507V56.2512H45.776V56.8985H42.4507V59.9034H41.745Z" fill="black"/>
<path d="M61.6187 59.9034V53.9034H59.2794V53.256H64.6734V53.9034H62.334V59.9034H61.6187Z" fill="black"/>
<path d="M79.9917 59.9034L77.8457 53.256H78.5514L80.2527 58.6377L81.9347 53.256H82.4664L84.1484 58.628L85.8497 53.256H86.565L84.4094 59.9034H83.8874L82.1957 54.5217L80.5137 59.9034H79.9917Z" fill="black"/>
<path d="M99.2051 59.9034L101.931 53.256H102.463L105.16 59.9034H104.396L103.7 58.1739H100.655L99.9591 59.9034H99.2051ZM100.906 57.5459H103.449L102.182 54.3768L100.906 57.5459Z" fill="black"/>
<path d="M119.057 59.9034V53.256H121.444C122.73 53.256 123.513 54.0193 123.513 55.1014C123.513 56.1739 122.759 56.8985 121.531 56.9275L123.987 59.9034H123.078L120.661 56.9275H119.762V59.9034H119.057ZM121.444 53.8744H119.762V56.3285H121.444C122.324 56.3285 122.798 55.8551 122.798 55.1014C122.798 54.3865 122.324 53.8744 121.444 53.8744Z" fill="black"/>
<path d="M137.802 59.9034V53.256H142.123V53.9034H138.507V56.1836H141.871V56.8116H138.507V59.256H142.181V59.9034H137.802Z" fill="black"/>
</svg>